<?xml version="1.0"?>
<!-- Created by MetaPost 1.504 on 2012.01.15:2124 -->
<svg version="1.1" xmlns="http://www.w3.org/2000/svg" xmlns:xlink="http://www.w3.org/1999/xlink" width="286.45331" height="286.45331" viewBox="0 0 286.45331 286.45331">
<!-- Original BoundingBox: -143.22665 -143.22665 143.22665 143.22665 -->
  <path d="M284.95891 143.22665C284.95891 105.63525,270.02356 69.588,243.44444 43.00887C216.86531 16.42975,180.81805 1.4944,143.22665 1.4944C105.63525 1.4944,69.588 16.42975,43.00887 43.00887C16.42975 69.588,1.4944 105.63525,1.4944 143.22665C1.4944 180.81805,16.42975 216.86531,43.00887 243.44444C69.588 270.02356,105.63525 284.95891,143.22665 284.95891C180.81805 284.95891,216.86531 270.02356,243.44444 243.44444C270.02356 216.86531,284.95891 180.81805,284.95891 143.22665Z" style="stroke:rgb(0%,0%,0%); stroke-width: 2.98878;stroke-linecap: round;stroke-linejoin: round;stroke-miterlimit: 10;fill: none;"></path>
  <path d="M278.4015 185.83748L8.0518 185.8376L143.22665 1.4944Z" style="stroke:rgb(0%,0%,0%); stroke-width: 2.98878;stroke-linecap: round;stroke-linejoin: round;stroke-miterlimit: 10;fill: none;"></path>
  <path d="M272.34119 84.76926L14.11212 84.76912L143.22665 284.95891Z" style="stroke:rgb(0%,0%,0%); stroke-width: 2.98878;stroke-linecap: round;stroke-linejoin: round;stroke-miterlimit: 10;fill: none;"></path>
  <path d="M215.70613 52.4968L143.22665 257.4001L70.74718 52.4968Z" style="stroke:rgb(0%,0%,0%); stroke-width: 2.98878;stroke-linecap: round;stroke-linejoin: round;stroke-miterlimit: 10;fill: none;"></path>
  <path d="M186.46341 257.4001L99.9899 257.4001L143.22665 84.76918Z" style="stroke:rgb(0%,0%,0%); stroke-width: 2.98878;stroke-linecap: round;stroke-linejoin: round;stroke-miterlimit: 10;fill: none;"></path>
  <path d="M92.44449 11.39024L194.00882 11.39024L143.22665 167.36629Z" style="stroke:rgb(0%,0%,0%); stroke-width: 2.98878;stroke-linecap: round;stroke-linejoin: round;stroke-miterlimit: 10;fill: none;"></path>
  <path d="M143.22665 11.39024L222.96106 228.96422L63.49225 228.96422Z" style="stroke:rgb(0%,0%,0%); stroke-width: 2.98878;stroke-linecap: round;stroke-linejoin: round;stroke-miterlimit: 10;fill: none;"></path>
  <path d="M175.07411 167.36574L111.3792 167.36574L143.22665 52.4968Z" style="stroke:rgb(0%,0%,0%); stroke-width: 2.98878;stroke-linecap: round;stroke-linejoin: round;stroke-miterlimit: 10;fill: none;"></path>
  <path d="M143.22665 228.96422L181.02657 114.53613L105.42674 114.53613Z" style="stroke:rgb(0%,0%,0%); stroke-width: 2.98878;stroke-linecap: round;stroke-linejoin: round;stroke-miterlimit: 10;fill: none;"></path>
  <path d="M143.22665 185.83754L165.11725 131.45305L121.33606 131.45305Z" style="stroke:rgb(0%,0%,0%); stroke-width: 2.98878;stroke-linecap: round;stroke-linejoin: round;stroke-miterlimit: 10;fill: none;"></path>
</svg>
